<svg width="85" height="100" viewBox="0 0 85 100" fill="none" xmlns="http://www.w3.org/2000/svg">
<path d="M0 14.5C0 6.49187 6.49187 0 14.5 0V0C22.5081 0 29 6.49187 29 14.5L29 85.5C29 93.5081 22.5081 100 14.5 100V100C6.49187 100 0 93.5081 0 85.5L0 14.5Z" fill="black"/>
<path d="M64.5 43C72.5081 43 79 49.4919 79 57.5V57.5C79 65.5081 72.5081 72 64.5 72V72C56.4919 72 50 65.5081 50 57.5V57.5C50 49.4919 56.4919 43 64.5 43V43Z" fill="black"/>
<path d="M70.5 -6.33815e-07C78.5081 -2.83769e-07 85 6.49187 85 14.5V14.5C85 22.5081 78.5081 29 70.5 29L14.5 29C6.49187 29 -9.83862e-07 22.5081 -6.33815e-07 14.5V14.5C-2.83769e-07 6.49187 6.49187 -3.4317e-06 14.5 -3.08165e-06L70.5 -6.33815e-07Z" fill="black"/>
<path d="M70.5 -6.33815e-07C78.5081 -2.83769e-07 85 6.49187 85 14.5V14.5C85 22.5081 78.5081 29 70.5 29L14.5 29C6.49187 29 -9.83862e-07 22.5081 -6.33815e-07 14.5V14.5C-2.83769e-07 6.49187 6.49187 -3.4317e-06 14.5 -3.08165e-06L70.5 -6.33815e-07Z" fill="black"/>
</svg>
